<?xml version="1.0" encoding="utf-8"?>
<!-- Generator: Adobe Illustrator 17.0.0, SVG Export Plug-In . SVG Version: 6.00 Build 0)  -->
<!DOCTYPE svg PUBLIC "-//W3C//DTD SVG 1.1//EN" "http://www.w3.org/Graphics/SVG/1.1/DTD/svg11.dtd">

<svg version="1.1" class="skull-swg" xmlns="http://www.w3.org/2000/svg" xmlns:xlink="http://www.w3.org/1999/xlink" x="0px" y="0px"
	 width="400px" height="500px" preserveAspectRatio='xMidYMid' viewBox="0 0 400 500" enable-background="new 0 0 400 500" xml:space="preserve">
<g>
  <!--jaws-->
	<polygon fill="#D7C8A3" points="104.999,331.471 104.999,351.471 128.749,374.115 152.499,351.471 176.249,374.115
		199.999,351.471 223.749,374.115 247.499,351.471 271.249,374.115 294.999,351.471 294.999,331.471 	"/>
  <path fill="#6ABFB0" d="M86,338.87V48.529c0-21.085,17.251-38.335,38.335-38.335h151.329c21.085,0,38.335,17.251,38.335,38.335
    V338.87"/>
  <path class='filtered' fill="#6ABFB0" d="M354,338.87L314,48.529c0-21.085-17.251-38.335-38.335-38.335H124.335C103.251,10.193,86,27.444,86,48.529
    L46,338.87H354z"/>
	<g class='jaw-bottom'>
	  <polygon fill="#D7C8A3" points="104.999,407.147 104.999,373.147 128.749,393.147 152.499,373.147 176.249,393.147
		  199.999,373.147 223.749,393.147 247.499,373.147 271.249,393.147 294.999,373.147 294.999,407.147 	"/>
		<path class='filtered' fill="#6ABFB0" d="M95,401.807v48c0,22,18,40,40,40h130c22,0,40-18,40-40v-48H95z"/>
	</g>



	<g>
    <!--head-->
    <path class='head filtered' fill="#E85026" d="M394.48,264.455c0,22-18,40-40,40H45.52c-22,0-40-18-40-40v-172c0-22,18-40,40-40h308.96
      c22,0,40,18,40,40V264.455z"/>
		<g>
			<g>
        <g class='eye'>

          <!--bg circle-->
          <circle fill="#D7C8A3" cx="95.014" cy="178.455" r="72.148"/>

          <!--point-->
          <circle stroke="#652B21" stroke-width="2.5481" stroke-miterlimit="10" cx="95.014" cy="178.455" r="2.248"/>

          <!--arrow lines-->
          <polyline fill="none" stroke="#652B21" stroke-width="1.6204" stroke-miterlimit="10" points="78.069,167.601 94.997,179.038
            121.816,152.219"/>

          <!--arrow hours-->
          <path fill="#652B21" d="M80.479,169.229l6.211-2.85l-0.091-0.221l-10.005-2.197c-3.157-1.253-6.313-2.505-9.471-3.757
            c2.34,2.461,4.68,4.923,7.019,7.385l5.771,8.463l0.221,0.029L80.479,169.229z"/>

          <!--arrow minutes-->
          <path fill="#652B21" d="M119.759,154.276l-6.639-1.617l0.047-0.234l9.406-4.058c2.861-1.83,5.722-3.659,8.584-5.488
            c-1.829,2.861-3.659,5.722-5.488,8.584l-4.058,9.405l-0.212,0.07L119.759,154.276z"/>

        </g>
        <g>
            <rect x="94.899" y="112.695" fill="#4D4D4D" stroke="#652B21" stroke-width="1.8403" stroke-miterlimit="10" width="0.273" height="3.913"/>

            <rect x="88.23" y="113.042" transform="matrix(0.9946 -0.1042 0.1042 0.9946 -11.5001 9.8322)" fill="#4D4D4D" stroke="#652B21" stroke-width="1.8403" stroke-miterlimit="10" width="0.273" height="3.913"/>

            <rect x="81.634" y="114.085" transform="matrix(0.9777 -0.21 0.21 0.9777 -22.5463 19.7605)" fill="#4D4D4D" stroke="#652B21" stroke-width="1.8403" stroke-miterlimit="10" width="0.273" height="3.913"/>

            <rect x="75.182" y="115.811" transform="matrix(0.9507 -0.3101 0.3101 0.9507 -32.8096 29.1654)" fill="#4D4D4D" stroke="#652B21" stroke-width="1.8403" stroke-miterlimit="10" width="0.273" height="3.913"/>

            <rect x="68.947" y="118.202" transform="matrix(0.9129 -0.4082 0.4082 0.9129 -43.0267 38.6606)" fill="#4D4D4D" stroke="#652B21" stroke-width="1.8403" stroke-miterlimit="10" width="0.273" height="3.913"/>

            <rect x="57.392" y="124.867" transform="matrix(0.8079 -0.5894 0.5894 0.8079 -63.6914 58.2711)" fill="#4D4D4D" stroke="#652B21" stroke-width="1.8403" stroke-miterlimit="10" width="0.273" height="3.914"/>

            <rect x="52.201" y="129.068" transform="matrix(0.7424 -0.67 0.67 0.7424 -74.3018 68.8219)" fill="#4D4D4D" stroke="#652B21" stroke-width="1.8403" stroke-miterlimit="10" width="0.273" height="3.914"/>

            <rect x="47.477" y="133.788" transform="matrix(0.6673 -0.7448 0.7448 0.6673 -85.2594 80.621)" fill="#4D4D4D" stroke="#652B21" stroke-width="1.8403" stroke-miterlimit="10" width="0.273" height="3.915"/>

            <rect x="43.273" y="138.977" transform="matrix(0.5846 -0.8113 0.8113 0.5846 -96.3099 93.7597)" fill="#4D4D4D" stroke="#652B21" stroke-width="1.8403" stroke-miterlimit="10" width="0.273" height="3.914"/>

            <rect x="36.599" y="150.526" transform="matrix(0.4024 -0.9155 0.9155 0.4024 -117.6404 124.7565)" fill="#4D4D4D" stroke="#652B21" stroke-width="1.8403" stroke-miterlimit="10" width="0.273" height="3.914"/>

            <rect x="34.203" y="156.76" transform="matrix(0.3052 -0.9523 0.9523 0.3052 -127.2859 142.9863)" fill="#4D4D4D" stroke="#652B21" stroke-width="1.8403" stroke-miterlimit="10" width="0.273" height="3.914"/>

            <rect x="32.473" y="163.21" transform="matrix(0.205 -0.9788 0.9788 0.205 -135.7353 163.2243)" fill="#4D4D4D" stroke="#652B21" stroke-width="1.8403" stroke-miterlimit="10" width="0.273" height="3.915"/>

            <rect x="31.426" y="169.806" transform="matrix(0.1044 -0.9945 0.9945 0.1044 -142.5583 185.2129)" fill="#4D4D4D" stroke="#652B21" stroke-width="1.8403" stroke-miterlimit="10" width="0.273" height="3.914"/>

            <rect x="29.253" y="178.296" fill="#4D4D4D" stroke="#652B21" stroke-width="1.8403" stroke-miterlimit="10" width="3.914" height="0.273"/>

            <rect x="31.421" y="183.145" transform="matrix(-0.1069 -0.9943 0.9943 -0.1069 -149.1113 236.2634)" fill="#4D4D4D" stroke="#652B21" stroke-width="1.8403" stroke-miterlimit="10" width="0.273" height="3.915"/>

            <rect x="32.463" y="189.741" transform="matrix(-0.2109 -0.9775 0.9775 -0.2109 -147.9133 263.9901)" fill="#4D4D4D" stroke="#652B21" stroke-width="1.8403" stroke-miterlimit="10" width="0.273" height="3.914"/>

            <rect x="34.19" y="196.193" transform="matrix(-0.3131 -0.9497 0.9497 -0.3131 -143.1102 292.7972)" fill="#4D4D4D" stroke="#652B21" stroke-width="1.8403" stroke-miterlimit="10" width="0.273" height="3.915"/>

            <rect x="36.581" y="202.429" transform="matrix(-0.4102 -0.912 0.912 -0.4102 -134.6181 321.7141)" fill="#4D4D4D" stroke="#652B21" stroke-width="1.8403" stroke-miterlimit="10" width="0.273" height="3.914"/>

            <rect x="43.246" y="213.982" transform="matrix(-0.5906 -0.807 0.807 -0.5906 -105.2528 378.4809)" fill="#4D4D4D" stroke="#652B21" stroke-width="1.8403" stroke-miterlimit="10" width="0.273" height="3.915"/>

            <rect x="47.447" y="219.174" transform="matrix(-0.6719 -0.7407 0.7407 -0.6719 -84.2323 404.9459)" fill="#4D4D4D" stroke="#652B21" stroke-width="1.8403" stroke-miterlimit="10" width="0.273" height="3.915"/>

            <rect x="52.168" y="223.898" transform="matrix(-0.7468 -0.6651 0.6651 -0.7468 -58.8494 429.3046)" fill="#4D4D4D" stroke="#652B21" stroke-width="1.8403" stroke-miterlimit="10" width="0.273" height="3.915"/>

            <rect x="57.357" y="228.103" transform="matrix(-0.812 -0.5837 0.5837 -0.812 -30.1067 450.4225)" fill="#4D4D4D" stroke="#652B21" stroke-width="1.8403" stroke-miterlimit="10" width="0.273" height="3.915"/>

            <rect x="68.905" y="234.776" transform="matrix(-0.9161 -0.4009 0.4009 -0.9161 37.3728 481.2878)" fill="#4D4D4D" stroke="#652B21" stroke-width="1.8403" stroke-miterlimit="10" width="0.274" height="3.915"/>

            <rect x="75.14" y="237.172" transform="matrix(-0.9523 -0.3052 0.3052 -0.9523 73.981 489.823)" fill="#4D4D4D" stroke="#652B21" stroke-width="1.8403" stroke-miterlimit="10" width="0.273" height="3.915"/>

            <rect x="81.589" y="238.902" transform="matrix(-0.9786 -0.2056 0.2056 -0.9786 112.1754 493.3778)" fill="#4D4D4D" stroke="#652B21" stroke-width="1.8403" stroke-miterlimit="10" width="0.274" height="3.915"/>

            <rect x="88.186" y="239.95" transform="matrix(-0.9945 -0.1044 0.1044 -0.9945 150.8956 491.7154)" fill="#4D4D4D" stroke="#652B21" stroke-width="1.8403" stroke-miterlimit="10" width="0.273" height="3.914"/>

            <rect x="94.855" y="240.301" fill="#4D4D4D" stroke="#652B21" stroke-width="1.8403" stroke-miterlimit="10" width="0.273" height="3.914"/>

            <rect x="101.524" y="239.954" transform="matrix(-0.9943 0.107 -0.107 -0.9943 228.6287 471.5534)" fill="#4D4D4D" stroke="#652B21" stroke-width="1.8403" stroke-miterlimit="10" width="0.273" height="3.915"/>

            <rect x="108.121" y="238.912" transform="matrix(-0.9781 0.2081 -0.2081 -0.9781 264.2739 453.9336)" fill="#4D4D4D" stroke="#652B21" stroke-width="1.8403" stroke-miterlimit="10" width="0.274" height="3.914"/>

            <rect x="114.572" y="237.186" transform="matrix(-0.9508 0.3098 -0.3098 -0.9508 297.8585 430.9869)" fill="#4D4D4D" stroke="#652B21" stroke-width="1.8403" stroke-miterlimit="10" width="0.274" height="3.915"/>

            <rect x="120.809" y="234.794" transform="matrix(-0.912 0.4102 -0.4102 -0.912 328.363 403.0554)" fill="#4D4D4D" stroke="#652B21" stroke-width="1.8403" stroke-miterlimit="10" width="0.273" height="3.915"/>

            <rect x="132.362" y="228.129" transform="matrix(-0.8075 0.5899 -0.5899 -0.8075 375.2186 337.7114)" fill="#4D4D4D" stroke="#652B21" stroke-width="1.8403" stroke-miterlimit="10" width="0.273" height="3.915"/>

            <rect x="137.554" y="223.928" transform="matrix(-0.7418 0.6706 -0.6706 -0.7418 391.3147 301.1032)" fill="#4D4D4D" stroke="#652B21" stroke-width="1.8403" stroke-miterlimit="10" width="0.273" height="3.915"/>

            <rect x="142.278" y="219.207" transform="matrix(-0.668 0.7441 -0.7441 -0.668 402.1276 262.9367)" fill="#4D4D4D" stroke="#652B21" stroke-width="1.8403" stroke-miterlimit="10" width="0.274" height="3.915"/>

            <rect x="146.483" y="214.019" transform="matrix(-0.5877 0.8091 -0.8091 -0.5877 407.5293 224.2648)" fill="#4D4D4D" stroke="#652B21" stroke-width="1.8403" stroke-miterlimit="10" width="0.273" height="3.914"/>

            <rect x="153.156" y="202.469" transform="matrix(-0.404 0.9148 -0.9148 -0.404 402.2225 146.7824)" fill="#4D4D4D" stroke="#652B21" stroke-width="1.8403" stroke-miterlimit="10" width="0.273" height="3.915"/>

            <rect x="155.552" y="196.235" transform="matrix(-0.3068 0.9518 -0.9518 -0.3068 392.0836 110.8057)" fill="#4D4D4D" stroke="#652B21" stroke-width="1.8403" stroke-miterlimit="10" width="0.273" height="3.915"/>

            <rect x="157.283" y="189.784" transform="matrix(-0.2039 0.979 -0.979 -0.2039 377.2296 76.7229)" fill="#4D4D4D" stroke="#652B21" stroke-width="1.8403" stroke-miterlimit="10" width="0.273" height="3.915"/>

            <rect x="158.33" y="183.189" transform="matrix(-0.1006 0.9949 -0.9949 -0.1006 358.6113 46.1042)" fill="#4D4D4D" stroke="#652B21" stroke-width="1.8403" stroke-miterlimit="10" width="0.273" height="3.915"/>

            <rect x="156.861" y="178.34" fill="#4D4D4D" stroke="#652B21" stroke-width="1.8403" stroke-miterlimit="10" width="3.915" height="0.273"/>

            <rect x="158.334" y="169.85" transform="matrix(0.1069 0.9943 -0.9943 0.1069 312.3539 -4.1211)" fill="#4D4D4D" stroke="#652B21" stroke-width="1.8403" stroke-miterlimit="10" width="0.273" height="3.915"/>

            <rect x="157.292" y="163.253" transform="matrix(0.21 0.9777 -0.9777 0.21 285.8933 -23.4027)" fill="#4D4D4D" stroke="#652B21" stroke-width="1.8403" stroke-miterlimit="10" width="0.273" height="3.915"/>

            <rect x="155.566" y="156.802" transform="matrix(0.3117 0.9502 -0.9502 0.3117 258.0215 -38.6705)" fill="#4D4D4D" stroke="#652B21" stroke-width="1.8403" stroke-miterlimit="10" width="0.273" height="3.915"/>

            <rect x="153.174" y="150.566" transform="matrix(0.4097 0.9122 -0.9122 0.4097 229.6286 -49.8209)" fill="#4D4D4D" stroke="#652B21" stroke-width="1.8403" stroke-miterlimit="10" width="0.273" height="3.915"/>

            <rect x="146.509" y="139.012" transform="matrix(0.5916 0.8062 -0.8062 0.5916 173.5482 -60.6581)" fill="#4D4D4D" stroke="#652B21" stroke-width="1.8403" stroke-miterlimit="10" width="0.274" height="3.915"/>

            <rect x="142.308" y="133.82" transform="matrix(0.6714 0.7411 -0.7411 0.6714 147.4431 -60.948)" fill="#4D4D4D" stroke="#652B21" stroke-width="1.8403" stroke-miterlimit="10" width="0.273" height="3.915"/>

            <rect x="137.587" y="129.096" transform="matrix(0.7455 0.6665 -0.6665 0.7455 122.4065 -58.441)" fill="#4D4D4D" stroke="#652B21" stroke-width="1.8403" stroke-miterlimit="10" width="0.273" height="3.915"/>

            <rect x="132.398" y="124.892" transform="matrix(0.8117 0.584 -0.584 0.8117 99.0334 -53.5224)" fill="#4D4D4D" stroke="#652B21" stroke-width="1.8403" stroke-miterlimit="10" width="0.273" height="3.915"/>

            <rect x="120.849" y="118.218" transform="matrix(0.9155 0.4024 -0.4024 0.9155 58.5837 -38.5244)" fill="#4D4D4D" stroke="#652B21" stroke-width="1.8403" stroke-miterlimit="10" width="0.273" height="3.915"/>

            <rect x="114.615" y="115.823" transform="matrix(0.9527 0.304 -0.304 0.9527 41.2314 -29.3078)" fill="#4D4D4D" stroke="#652B21" stroke-width="1.8403" stroke-miterlimit="10" width="0.273" height="3.915"/>

            <rect x="108.165" y="114.092" transform="matrix(0.979 0.2039 -0.2039 0.979 25.9366 -19.6439)" fill="#4D4D4D" stroke="#652B21" stroke-width="1.8403" stroke-miterlimit="10" width="0.273" height="3.915"/>

            <rect x="101.568" y="113.045" transform="matrix(0.995 0.1003 -0.1003 0.995 12.051 -9.6236)" fill="#4D4D4D" stroke="#652B21" stroke-width="1.8403" stroke-miterlimit="10" width="0.274" height="3.915"/>
        </g>

			</g>


		</g>
		<g>
			<g>
				<g class='eye'>
					<!--eye right-->
					<!--bg circlw-->
					<circle fill="#D7C8A3" cx="307.201" cy="178.455" r="72.148"/>
					<circle stroke="#652B21" stroke-width="2.5481" stroke-miterlimit="10" cx="307.201" cy="178.455" r="2.248"/>

          <polyline fill="none" stroke="#652B21" stroke-width="1.6204" stroke-miterlimit="10" points="290.256,167.601
            307.183,179.038 334.002,152.219 					"/>

          <path fill="#652B21" d="M292.666,169.229l6.211-2.85l-0.091-0.221l-10.005-2.197c-3.157-1.253-6.313-2.505-9.47-3.757
            c2.34,2.461,4.68,4.923,7.019,7.385l5.771,8.463l0.221,0.029L292.666,169.229z"/>


          <path fill="#652B21" d="M331.946,154.276l-6.639-1.617l0.047-0.234l9.406-4.058c2.861-1.83,5.722-3.659,8.584-5.488
            c-1.83,2.861-3.659,5.722-5.488,8.584l-4.058,9.405l-0.212,0.07L331.946,154.276z"/>

				</g>
				<g>
					
						<rect x="307.086" y="112.695" fill="none" stroke="#652B21" stroke-width="1.8403" stroke-miterlimit="10" width="0.273" height="3.913"/>
					
						<rect x="300.417" y="113.042" transform="matrix(0.9946 -0.1042 0.1042 0.9946 -10.3454 31.9384)" fill="none" stroke="#652B21" stroke-width="1.8403" stroke-miterlimit="10" width="0.273" height="3.913"/>
					
						<rect x="293.821" y="114.085" transform="matrix(0.9777 -0.21 0.21 0.9777 -17.8144 64.3217)" fill="none" stroke="#652B21" stroke-width="1.8403" stroke-miterlimit="10" width="0.273" height="3.913"/>
					
						<rect x="287.369" y="115.811" transform="matrix(0.9507 -0.3101 0.3101 0.9507 -22.3476 94.9709)" fill="none" stroke="#652B21" stroke-width="1.8403" stroke-miterlimit="10" width="0.273" height="3.913"/>
					
						<rect x="281.133" y="118.202" transform="matrix(0.9129 -0.4082 0.4082 0.9129 -24.5483 125.2649)" fill="none" stroke="#652B21" stroke-width="1.8403" stroke-miterlimit="10" width="0.273" height="3.913"/>
					
						<rect x="269.579" y="124.867" transform="matrix(0.8079 -0.5894 0.5894 0.8079 -22.925 183.3241)" fill="none" stroke="#652B21" stroke-width="1.8403" stroke-miterlimit="10" width="0.273" height="3.914"/>
					
						<rect x="264.387" y="129.068" transform="matrix(0.7424 -0.67 0.67 0.7424 -19.6358 210.9852)" fill="none" stroke="#652B21" stroke-width="1.8403" stroke-miterlimit="10" width="0.273" height="3.914"/>
					
						<rect x="259.664" y="133.788" transform="matrix(0.6673 -0.7448 0.7448 0.6673 -14.6693 238.6512)" fill="none" stroke="#652B21" stroke-width="1.8403" stroke-miterlimit="10" width="0.273" height="3.915"/>
					
						<rect x="255.459" y="138.977" transform="matrix(0.5846 -0.8113 0.8113 0.5846 -8.1713 265.9085)" fill="none" stroke="#652B21" stroke-width="1.8403" stroke-miterlimit="10" width="0.273" height="3.914"/>
					
						<rect x="248.785" y="150.526" transform="matrix(0.4024 -0.9155 0.9155 0.4024 9.1655 319.007)" fill="none" stroke="#652B21" stroke-width="1.8403" stroke-miterlimit="10" width="0.273" height="3.914"/>
					
						<rect x="246.39" y="156.76" transform="matrix(0.3052 -0.9523 0.9523 0.3052 20.1511 345.0521)" fill="none" stroke="#652B21" stroke-width="1.8403" stroke-miterlimit="10" width="0.273" height="3.914"/>
					
						<rect x="244.66" y="163.21" transform="matrix(0.205 -0.9788 0.9788 0.205 32.9518 370.9041)" fill="none" stroke="#652B21" stroke-width="1.8403" stroke-miterlimit="10" width="0.273" height="3.915"/>
					
						<rect x="243.612" y="169.806" transform="matrix(0.1044 -0.9945 0.9945 0.1044 47.4659 396.2388)" fill="none" stroke="#652B21" stroke-width="1.8403" stroke-miterlimit="10" width="0.273" height="3.914"/>
					
						<rect x="241.44" y="178.296" fill="none" stroke="#652B21" stroke-width="1.8403" stroke-miterlimit="10" width="3.914" height="0.273"/>
					
						<rect x="243.607" y="183.145" transform="matrix(-0.1069 -0.9943 0.9943 -0.1069 85.7552 447.2343)" fill="none" stroke="#652B21" stroke-width="1.8403" stroke-miterlimit="10" width="0.273" height="3.915"/>
					
						<rect x="244.649" y="189.741" transform="matrix(-0.2109 -0.9775 0.9775 -0.2109 109.0189 471.405)" fill="none" stroke="#652B21" stroke-width="1.8403" stroke-miterlimit="10" width="0.273" height="3.914"/>
					
						<rect x="246.376" y="196.193" transform="matrix(-0.3131 -0.9497 0.9497 -0.3131 135.5188 494.3127)" fill="none" stroke="#652B21" stroke-width="1.8403" stroke-miterlimit="10" width="0.273" height="3.915"/>
					
						<rect x="248.767" y="202.429" transform="matrix(-0.4102 -0.912 0.912 -0.4102 164.6109 515.2255)" fill="none" stroke="#652B21" stroke-width="1.8403" stroke-miterlimit="10" width="0.273" height="3.914"/>
					
						<rect x="255.432" y="213.982" transform="matrix(-0.5906 -0.807 0.807 -0.5906 232.2499 549.7086)" fill="none" stroke="#652B21" stroke-width="1.8403" stroke-miterlimit="10" width="0.273" height="3.915"/>
					
						<rect x="259.633" y="219.174" transform="matrix(-0.6719 -0.7407 0.7407 -0.6719 270.5155 562.1062)" fill="none" stroke="#652B21" stroke-width="1.8403" stroke-miterlimit="10" width="0.273" height="3.915"/>
					
						<rect x="264.355" y="223.898" transform="matrix(-0.7468 -0.6651 0.6651 -0.7468 311.7913 570.4265)" fill="none" stroke="#652B21" stroke-width="1.8403" stroke-miterlimit="10" width="0.273" height="3.915"/>
					
						<rect x="269.543" y="228.103" transform="matrix(-0.812 -0.5837 0.5837 -0.812 354.3708 574.2728)" fill="none" stroke="#652B21" stroke-width="1.8403" stroke-miterlimit="10" width="0.273" height="3.915"/>
					
						<rect x="281.091" y="234.776" transform="matrix(-0.9161 -0.4009 0.4009 -0.9161 443.9435 566.3636)" fill="none" stroke="#652B21" stroke-width="1.8403" stroke-miterlimit="10" width="0.274" height="3.915"/>
					
						<rect x="287.326" y="237.172" transform="matrix(-0.9523 -0.3052 0.3052 -0.9523 488.2307 554.5804)" fill="none" stroke="#652B21" stroke-width="1.8403" stroke-miterlimit="10" width="0.273" height="3.915"/>
					
						<rect x="293.776" y="238.902" transform="matrix(-0.9786 -0.2056 0.2056 -0.9786 532.0135 537.0115)" fill="none" stroke="#652B21" stroke-width="1.8403" stroke-miterlimit="10" width="0.274" height="3.915"/>
					
						<rect x="300.373" y="239.95" transform="matrix(-0.9945 -0.1044 0.1044 -0.9945 574.1079 513.8777)" fill="none" stroke="#652B21" stroke-width="1.8403" stroke-miterlimit="10" width="0.273" height="3.914"/>
					
						<rect x="307.041" y="240.301" fill="none" stroke="#652B21" stroke-width="1.8403" stroke-miterlimit="10" width="0.273" height="3.914"/>
					
						<rect x="313.711" y="239.954" transform="matrix(-0.9943 0.107 -0.107 -0.9943 651.7828 448.844)" fill="none" stroke="#652B21" stroke-width="1.8403" stroke-miterlimit="10" width="0.273" height="3.915"/>
					
						<rect x="320.307" y="238.912" transform="matrix(-0.9781 0.2081 -0.2081 -0.9781 684.0008 409.7738)" fill="none" stroke="#652B21" stroke-width="1.8403" stroke-miterlimit="10" width="0.274" height="3.914"/>
					
						<rect x="326.759" y="237.186" transform="matrix(-0.9508 0.3098 -0.3098 -0.9508 711.7933 365.2545)" fill="none" stroke="#652B21" stroke-width="1.8403" stroke-miterlimit="10" width="0.274" height="3.915"/>
					
						<rect x="332.995" y="234.794" transform="matrix(-0.912 0.4102 -0.4102 -0.912 734.0621 316.0154)" fill="none" stroke="#652B21" stroke-width="1.8403" stroke-miterlimit="10" width="0.273" height="3.915"/>
					
						<rect x="344.549" y="228.129" transform="matrix(-0.8075 0.5899 -0.5899 -0.8075 758.7387 212.54)" fill="none" stroke="#652B21" stroke-width="1.8403" stroke-miterlimit="10" width="0.273" height="3.915"/>
					
						<rect x="349.74" y="223.928" transform="matrix(-0.7418 0.6706 -0.6706 -0.7418 760.898 158.803)" fill="none" stroke="#652B21" stroke-width="1.8403" stroke-miterlimit="10" width="0.273" height="3.915"/>
					
						<rect x="354.464" y="219.207" transform="matrix(-0.668 0.7441 -0.7441 -0.668 756.0629 105.0433)" fill="none" stroke="#652B21" stroke-width="1.8403" stroke-miterlimit="10" width="0.274" height="3.915"/>
					
						<rect x="358.669" y="214.019" transform="matrix(-0.5877 0.8091 -0.8091 -0.5877 744.4088 52.5827)" fill="none" stroke="#652B21" stroke-width="1.8403" stroke-miterlimit="10" width="0.273" height="3.914"/>
					
						<rect x="365.343" y="202.469" transform="matrix(-0.404 0.9148 -0.9148 -0.404 700.1273 -47.3193)" fill="none" stroke="#652B21" stroke-width="1.8403" stroke-miterlimit="10" width="0.273" height="3.915"/>
					
						<rect x="367.738" y="196.235" transform="matrix(-0.3068 0.9518 -0.9518 -0.3068 669.3586 -91.1512)" fill="none" stroke="#652B21" stroke-width="1.8403" stroke-miterlimit="10" width="0.273" height="3.915"/>
					
						<rect x="369.47" y="189.784" transform="matrix(-0.2039 0.979 -0.979 -0.2039 632.6781 -131.0065)" fill="none" stroke="#652B21" stroke-width="1.8403" stroke-miterlimit="10" width="0.273" height="3.915"/>
					
						<rect x="370.516" y="183.189" transform="matrix(-0.1006 0.9949 -0.9949 -0.1006 592.1383 -165.0064)" fill="none" stroke="#652B21" stroke-width="1.8403" stroke-miterlimit="10" width="0.273" height="3.915"/>
					
						<rect x="369.047" y="178.34" fill="none" stroke="#652B21" stroke-width="1.8403" stroke-miterlimit="10" width="3.915" height="0.273"/>
					
						<rect x="370.521" y="169.85" transform="matrix(0.1069 0.9943 -0.9943 0.1069 501.8583 -215.0918)" fill="none" stroke="#652B21" stroke-width="1.8403" stroke-miterlimit="10" width="0.273" height="3.915"/>
					
						<rect x="369.478" y="163.253" transform="matrix(0.21 0.9777 -0.9777 0.21 453.5185 -230.8573)" fill="none" stroke="#652B21" stroke-width="1.8403" stroke-miterlimit="10" width="0.273" height="3.915"/>
					
						<rect x="367.752" y="156.802" transform="matrix(0.3117 0.9502 -0.9502 0.3117 404.0713 -240.2865)" fill="none" stroke="#652B21" stroke-width="1.8403" stroke-miterlimit="10" width="0.273" height="3.915"/>
					
						<rect x="365.361" y="150.566" transform="matrix(0.4097 0.9122 -0.9122 0.4097 354.8769 -243.3794)" fill="none" stroke="#652B21" stroke-width="1.8403" stroke-miterlimit="10" width="0.273" height="3.915"/>
					
						<rect x="358.695" y="139.012" transform="matrix(0.5916 0.8062 -0.8062 0.5916 260.2086 -231.7321)" fill="none" stroke="#652B21" stroke-width="1.8403" stroke-miterlimit="10" width="0.274" height="3.915"/>
					
						<rect x="354.494" y="133.82" transform="matrix(0.6714 0.7411 -0.7411 0.6714 217.1768 -218.2067)" fill="none" stroke="#652B21" stroke-width="1.8403" stroke-miterlimit="10" width="0.273" height="3.915"/>
					
						<rect x="349.774" y="129.096" transform="matrix(0.7455 0.6665 -0.6665 0.7455 176.4137 -199.8709)" fill="none" stroke="#652B21" stroke-width="1.8403" stroke-miterlimit="10" width="0.273" height="3.915"/>
					
						<rect x="344.585" y="124.892" transform="matrix(0.8117 0.584 -0.584 0.8117 138.9798 -177.4435)" fill="none" stroke="#652B21" stroke-width="1.8403" stroke-miterlimit="10" width="0.273" height="3.915"/>
					
						<rect x="333.036" y="118.218" transform="matrix(0.9155 0.4024 -0.4024 0.9155 76.5197 -123.905)" fill="none" stroke="#652B21" stroke-width="1.8403" stroke-miterlimit="10" width="0.273" height="3.915"/>
					
						<rect x="326.802" y="115.823" transform="matrix(0.9527 0.304 -0.304 0.9527 51.2716 -93.8059)" fill="none" stroke="#652B21" stroke-width="1.8403" stroke-miterlimit="10" width="0.273" height="3.915"/>
					
						<rect x="320.351" y="114.092" transform="matrix(0.979 0.2039 -0.2039 0.979 30.3939 -62.907)" fill="none" stroke="#652B21" stroke-width="1.8403" stroke-miterlimit="10" width="0.273" height="3.915"/>
					
						<rect x="313.755" y="113.045" transform="matrix(0.995 0.1003 -0.1003 0.995 13.1216 -30.9116)" fill="none" stroke="#652B21" stroke-width="1.8403" stroke-miterlimit="10" width="0.274" height="3.915"/>
				</g>
			</g>
			<g>
				<g>
				</g>
			</g>
		</g>
	</g>
</g>
</svg>
